<svg width="32" height="32" xmlns="http://www.w3.org/2000/svg">

 <g>
  <title>background</title>
  <rect fill="none" id="canvas_background" height="402" width="582" y="-1" x="-1"/>
 </g>
 <g>
  <title>Layer 1</title>
  <path id="svg_1" fill="#121212" d="m27.719,20.296l3.607,-10.718c0.181,-0.519 0.044,-0.792 -0.103,-0.998c-0.374,-0.527 -1.142,-0.512 -1.292,-0.512l-20.385,0.006l-0.544,-2.733c-0.147,-0.609 -0.581,-1.341 -1.456,-1.341l-5.729,0c-0.593,0 -0.817,0.59 -0.817,1.146l0,1.49c0,0.536 0.222,0.364 0.838,0.364l4.837,0l3.702,15.873c-0.588,0.623 -0.908,1.609 -0.908,2.457c0,1.864 1.484,3.465 3.379,3.465c1.791,0 3.132,-1.795 3.35,-2.795l7.21,0c0.218,1 1.305,2.873 3.349,2.873c1.862,0 3.378,-1.535 3.378,-3.396c0,-1.852 -1.125,-3.609 -3.359,-3.609c-0.928,0 -2.031,0.133 -2.543,1.133l-8.859,0c-0.643,-1 -1.521,-1.311 -2.409,-1.345l-0.122,-0.656l13.479,0c1.016,0 1.216,-0.214 1.397,-0.704zm-16.182,5.218c0,-0.709 0.577,-1.286 1.286,-1.286c0.707,0 1.283,0.577 1.283,1.286s-0.576,1.285 -1.283,1.285c-0.71,0 -1.286,-0.576 -1.286,-1.285zm15.246,1.269c-0.7,0 -1.27,-0.57 -1.27,-1.27c0,-0.7 0.569,-1.27 1.27,-1.27c0.701,0 1.27,0.569 1.27,1.27c0,0.7 -0.569,1.27 -1.27,1.27z"/>
 </g>
</svg>